<svg width="983" height="983" viewBox="0 0 983 983" fill="none" xmlns="http://www.w3.org/2000/svg">
<path fill-rule="evenodd" clip-rule="evenodd" d="M245.75 245.75C245.75 110.027 355.776 0 491.5 0H737.25H983V21.6838C983 145.432 882.682 245.75 758.934 245.75H737.25V491.5V513.184C737.25 636.932 636.932 737.25 513.184 737.25H491.5V491.5V245.75H245.75Z" fill="black"/>
<path fill-rule="evenodd" clip-rule="evenodd" d="M245.75 245.75V491.5V737.25H491.5V758.934C491.5 882.682 391.182 983 267.434 983H245.75H224.066C100.318 983 0 882.682 0 758.934V737.25V491.5V469.816C0 346.068 100.318 245.75 224.066 245.75H245.75Z" fill="black"/>
</svg>
